<svg width="48" height="49" viewBox="0 0 48 49" fill="none" xmlns="http://www.w3.org/2000/svg">
<path d="M13.1774 46.7417H6.47094C5.28518 46.7417 4.14797 46.2706 3.30951 45.4321C2.47104 44.5937 2 43.4565 2 42.2707V26.6224C2 25.4366 2.47104 24.2994 3.30951 23.461C4.14797 22.6225 5.28518 22.1515 6.47094 22.1515H13.1774M28.8257 17.6805V8.73864C28.8257 6.95999 28.1191 5.25419 26.8614 3.99649C25.6037 2.73879 23.8979 2.03223 22.1192 2.03223L13.1774 22.1515V46.7417H38.3935C39.4717 46.7538 40.518 46.3759 41.3396 45.6776C42.1612 44.9792 42.7027 44.0075 42.8644 42.9414L45.9494 22.8221C46.0466 22.1813 46.0034 21.5271 45.8227 20.9046C45.642 20.2822 45.3281 19.7065 44.9029 19.2174C44.4776 18.7284 43.951 18.3376 43.3597 18.0722C42.7684 17.8068 42.1265 17.6732 41.4784 17.6805H28.8257Z" stroke="#8FCA62" stroke-width="3" stroke-linecap="round" stroke-linejoin="round"/>
</svg>
