<svg width="48" height="44" viewBox="0 0 48 44" fill="none" xmlns="http://www.w3.org/2000/svg">
<path d="M6.4 2.31006H41.6C42.767 2.31006 43.8861 2.77915 44.7113 3.61413C45.5364 4.44911 46 5.58159 46 6.76244V20.1196C46 26.0238 43.6822 31.6862 39.5563 35.8611C35.4305 40.036 29.8348 42.3815 24 42.3815C21.1109 42.3815 18.2501 41.8057 15.581 40.6869C12.9118 39.5681 10.4865 37.9283 8.44365 35.8611C4.31785 31.6862 2 26.0238 2 20.1196V6.76244C2 5.58159 2.46357 4.44911 3.28873 3.61413C4.11389 2.77915 5.23305 2.31006 6.4 2.31006V2.31006Z" stroke="#8FCA62" stroke-width="3" stroke-linecap="round" stroke-linejoin="round"/>
<path d="M34.2797 15.0435L25.5714 23.7518L20.988 19.1685L14.113 26.0435" stroke="#8FCA62" stroke-width="3" stroke-linecap="round" stroke-linejoin="round"/>
<path d="M28.7797 15.0435H34.2797V20.5435" stroke="#8FCA62" stroke-width="3" stroke-linecap="round" stroke-linejoin="round"/>
</svg>
