<svg width="40" height="42" viewBox="0 0 40 42" fill="none" xmlns="http://www.w3.org/2000/svg">
<path d="M10.6532 40.0385H4.86127C3.8372 40.0385 2.85507 39.6317 2.13094 38.9075C1.40681 38.1834 1 37.2013 1 36.1772V22.6628C1 21.6387 1.40681 20.6566 2.13094 19.9324C2.85507 19.2083 3.8372 18.8015 4.86127 18.8015H10.6532M24.1676 14.9402V7.21769C24.1676 5.68158 23.5574 4.20838 22.4712 3.12219C21.385 2.036 19.9118 1.42578 18.3757 1.42578L10.6532 18.8015V40.0385H32.4307C33.3619 40.049 34.2656 39.7226 34.9751 39.1195C35.6847 38.5164 36.1524 37.6771 36.292 36.7564L38.9563 19.3807C39.0403 18.8273 39.0029 18.2622 38.8469 17.7247C38.6908 17.1871 38.4198 16.6899 38.0525 16.2676C37.6852 15.8452 37.2304 15.5077 36.7198 15.2785C36.2091 15.0493 35.6547 14.9339 35.095 14.9402H24.1676Z" stroke="#8FCA62" stroke-width="2" stroke-linecap="round" stroke-linejoin="round"/>
</svg>
