<svg width="43" height="43" viewBox="0 0 43 43" fill="none" xmlns="http://www.w3.org/2000/svg">
<path d="M5.1 1.39355H37.9C38.9874 1.39355 40.0302 1.86671 40.7991 2.70893C41.568 3.55115 42 4.69344 42 5.88452V19.3574C42 25.3128 39.8402 31.0243 35.9957 35.2354C32.1512 39.4465 26.9369 41.8123 21.5 41.8123C18.8079 41.8123 16.1422 41.2315 13.655 40.103C11.1678 38.9745 8.90791 37.3205 7.00431 35.2354C3.15982 31.0243 1 25.3128 1 19.3574V5.88452C1 4.69344 1.43196 3.55115 2.20086 2.70893C2.96976 1.86671 4.01261 1.39355 5.1 1.39355V1.39355Z" stroke="#8FCA62" stroke-width="2" stroke-linecap="round" stroke-linejoin="round"/>
<path d="M31.0788 14.2372L22.9642 23.021L18.6934 18.3979L12.2871 25.3325" stroke="#8FCA62" stroke-width="2" stroke-linecap="round" stroke-linejoin="round"/>
<path d="M25.9536 14.2371H31.0786V19.7847" stroke="#8FCA62" stroke-width="2" stroke-linecap="round" stroke-linejoin="round"/>
</svg>
