<svg width="175" height="105" viewBox="0 0 175 105" fill="none" xmlns="http://www.w3.org/2000/svg">
<path fill-rule="evenodd" clip-rule="evenodd" d="M35.0931 44.082L61.1434 59.4127L108.98 45.4931L134.906 59.5133L166.04 46.541L169.242 54.2257L134.441 68.7259L108.026 54.4411L60.0185 68.4103L33.7282 52.9384L1.86621 60.2674L0 52.1543L35.0931 44.082Z" fill="#3E3E3E"/>
<path fill-rule="evenodd" clip-rule="evenodd" d="M164.129 51.8642L146.258 42.7563L150.108 35.325L174.373 47.6916L165.532 72.9451L157.682 70.2793L164.129 51.8642Z" fill="#3E3E3E"/>
<path d="M142.042 63.5994C142.042 67.6799 138.735 70.9878 134.654 70.9878C130.574 70.9878 127.266 67.6799 127.266 63.5994C127.266 59.5189 130.574 56.2109 134.654 56.2109C138.735 56.2109 142.042 59.5189 142.042 63.5994Z" fill="#1E1E1E"/>
<path fill-rule="evenodd" clip-rule="evenodd" d="M134.652 60.3738C132.871 60.3738 131.427 61.8181 131.427 63.5998C131.427 65.3814 132.871 66.8257 134.652 66.8257C136.434 66.8257 137.878 65.3814 137.878 63.5998C137.878 61.8181 136.434 60.3738 134.652 60.3738ZM123.102 63.5998C123.102 57.2204 128.273 52.0488 134.652 52.0488C141.032 52.0488 146.203 57.2204 146.203 63.5998C146.203 69.9792 141.032 75.1507 134.652 75.1507C128.273 75.1507 123.102 69.9792 123.102 63.5998Z" fill="#3E3E3E"/>
<path d="M42.5581 49.863C42.5581 53.9436 39.2502 57.2515 35.1697 57.2515C31.0892 57.2515 27.7812 53.9436 27.7812 49.863C27.7812 45.7825 31.0892 42.4746 35.1697 42.4746C39.2502 42.4746 42.5581 45.7825 42.5581 49.863Z" fill="#1E1E1E"/>
<path fill-rule="evenodd" clip-rule="evenodd" d="M35.1681 46.6375C33.3865 46.6375 31.9422 48.0818 31.9422 49.8634C31.9422 51.6451 33.3865 53.0894 35.1681 53.0894C36.9498 53.0894 38.3941 51.6451 38.3941 49.8634C38.3941 48.0818 36.9498 46.6375 35.1681 46.6375ZM23.6172 49.8634C23.6172 43.484 28.7887 38.3125 35.1681 38.3125C41.5475 38.3125 46.719 43.484 46.719 49.8634C46.719 56.2428 41.5475 61.4144 35.1681 61.4144C28.7887 61.4144 23.6172 56.2428 23.6172 49.8634Z" fill="#3E3E3E"/>
<path d="M48.7539 0L85.2957 24.4759V52.46L48.7539 27.9842V0Z" fill="#4D6696" fill-opacity="0.8"/>
<path opacity="0.8" d="M35.6593 24.6096L35.4925 87.0888L58.5285 102.743L58.6952 40.2642L35.6593 24.6096Z" fill="#CAB362"/>
<path opacity="0.8" d="M113.415 22.0832L113.248 84.5625L136.284 100.162L136.451 37.6831L113.415 22.0832Z" fill="#9C62CA"/>
<path opacity="0.8" d="M109.426 21.9248L53.1614 60.4585V88.4009L109.426 49.8672V21.9248Z" fill="#8FCA62"/>
<path opacity="0.8" d="M85.2969 52.46L122.139 75.8547V104.92L85.2969 80.4295V52.46Z" fill="#4D6696"/>
</svg>
