<svg width="32" height="29" viewBox="0 0 32 29" fill="none" xmlns="http://www.w3.org/2000/svg">
<path d="M28.025 6.94995H4.225C2.58195 6.94995 1.25 8.2819 1.25 9.92495V24.8C1.25 26.443 2.58195 27.775 4.225 27.775H28.025C29.668 27.775 31 26.443 31 24.8V9.92495C31 8.2819 29.668 6.94995 28.025 6.94995Z" stroke="#004DC0" stroke-width="2" stroke-linecap="round" stroke-linejoin="round"/>
<path d="M22.0753 27.775V3.975C22.0753 3.18598 21.7619 2.42928 21.2039 1.87136C20.646 1.31344 19.8893 1 19.1003 1H13.1503C12.3613 1 11.6046 1.31344 11.0467 1.87136C10.4887 2.42928 10.1753 3.18598 10.1753 3.975V27.775" stroke="#004DC0" stroke-width="2" stroke-linecap="round" stroke-linejoin="round"/>
</svg>
