<svg width="168" height="119" viewBox="0 0 168 119" fill="none" xmlns="http://www.w3.org/2000/svg">
<path d="M161.273 20.6716C160.4 17.206 158.622 14.0307 156.12 11.4663C153.617 8.90202 150.477 7.03953 147.018 6.06697C134.38 3 83.8285 3 83.8285 3C83.8285 3 33.2766 3 20.6386 6.35906C17.1797 7.33162 14.0402 9.19411 11.5374 11.7584C9.03455 14.3228 7.25694 17.4981 6.38413 20.9637C4.07119 33.7103 2.9398 46.6409 3.0042 59.5929C2.92175 72.6424 4.05321 85.6716 6.38413 98.5142C7.34637 101.872 9.1638 104.927 11.6608 107.383C14.1578 109.839 17.25 111.613 20.6386 112.535C33.2766 115.894 83.8285 115.894 83.8285 115.894C83.8285 115.894 134.38 115.894 147.018 112.535C150.477 111.562 153.617 109.7 156.12 107.135C158.622 104.571 160.4 101.396 161.273 97.93C163.568 85.2794 164.699 72.4474 164.653 59.5929C164.735 46.5433 163.604 33.5141 161.273 20.6716V20.6716Z" stroke="#8FCA62" stroke-opacity="0.3" stroke-width="5" stroke-linecap="round" stroke-linejoin="round"/>
<path d="M67.2964 83.4715L109.545 59.5929L67.2964 35.7144V83.4715Z" stroke="#8FCA62" stroke-opacity="0.3" stroke-width="5" stroke-linecap="round" stroke-linejoin="round"/>
</svg>
