<svg width="157" height="140" viewBox="0 0 157 140" fill="none" xmlns="http://www.w3.org/2000/svg">
<g opacity="0.2">
<path d="M103.667 84.0927C103.686 91.4742 101.961 98.7558 98.6333 105.345C94.6874 113.24 88.6212 119.881 81.1142 124.523C73.6073 129.166 64.9561 131.626 56.1296 131.63C48.7481 131.649 41.4665 129.924 34.8778 126.596L3 137.222L13.6259 105.345C10.2979 98.7558 8.57335 91.4742 8.59259 84.0927C8.59601 75.2662 11.0568 66.615 15.6992 59.108C20.3417 51.6011 26.9825 45.5349 34.8778 41.589C41.4665 38.261 48.7481 36.5364 56.1296 36.5556H58.9259C70.5828 37.1987 81.5929 42.1189 89.8482 50.3741C98.1034 58.6294 103.024 69.6395 103.667 81.2964V84.0927Z" stroke="#004DC0" stroke-width="5" stroke-linecap="round" stroke-linejoin="round"/>
<path d="M53.3333 70.1111C53.3333 73.0776 54.5118 75.9226 56.6094 78.0202C58.707 80.1179 61.552 81.2963 64.5185 81.2963H131.63L154 103.667V14.1852C154 11.2187 152.822 8.37369 150.724 6.27606C148.626 4.17844 145.781 3 142.815 3H64.5185C61.552 3 58.707 4.17844 56.6094 6.27606C54.5118 8.37369 53.3333 11.2187 53.3333 14.1852V70.1111Z" stroke="#004DC0" stroke-width="5" stroke-linecap="round" stroke-linejoin="round"/>
</g>
</svg>
