<svg width="35" height="35" viewBox="0 0 35 35" fill="none" xmlns="http://www.w3.org/2000/svg">
<path d="M33.7518 25.4952V30.3702C33.7536 30.8227 33.6609 31.2707 33.4796 31.6853C33.2983 32.1 33.0324 32.4722 32.6989 32.7782C32.3654 33.0841 31.9717 33.3171 31.543 33.4621C31.1143 33.607 30.66 33.6609 30.2093 33.6202C25.2089 33.0768 20.4057 31.3681 16.1855 28.6314C12.2593 26.1365 8.93045 22.8077 6.43553 18.8814C3.68925 14.6421 1.98018 9.81552 1.44678 4.79266C1.40618 4.34329 1.45958 3.89039 1.6036 3.4628C1.74761 3.0352 1.97909 2.64228 2.28328 2.30904C2.58747 1.97581 2.95772 1.70956 3.37044 1.52726C3.78317 1.34495 4.22934 1.25058 4.68053 1.25016H9.55553C10.3442 1.2424 11.1087 1.52166 11.7066 2.0359C12.3046 2.55014 12.6952 3.26426 12.8055 4.04516C13.0113 5.60527 13.3929 7.13709 13.943 8.61141C14.1617 9.19303 14.209 9.82514 14.0794 10.4328C13.9498 11.0405 13.6487 11.5983 13.2118 12.0402L11.148 14.1039C13.4613 18.1722 16.8298 21.5406 20.898 23.8539L22.9618 21.7902C23.4036 21.3533 23.9614 21.0522 24.5691 20.9226C25.1768 20.793 25.8089 20.8403 26.3905 21.0589C27.8649 21.6091 29.3967 21.9906 30.9568 22.1964C31.7462 22.3078 32.4671 22.7054 32.9824 23.3136C33.4977 23.9218 33.7716 24.6982 33.7518 25.4952Z" stroke="#71D4FF" stroke-width="2" stroke-linecap="round" stroke-linejoin="round"/>
</svg>
