<svg width="109" height="99" viewBox="0 0 109 99" fill="none" xmlns="http://www.w3.org/2000/svg">
<g opacity="0.2">
<path d="M95.7 23.8501H13.3C7.61147 23.8501 3 28.4616 3 34.1501V85.6501C3 91.3386 7.61147 95.9501 13.3 95.9501H95.7C101.389 95.9501 106 91.3386 106 85.6501V34.1501C106 28.4616 101.389 23.8501 95.7 23.8501Z" stroke="#9C62CA" stroke-width="5" stroke-linecap="round" stroke-linejoin="round"/>
<path d="M75.0999 95.95V13.55C75.0999 10.8183 74.0147 8.19842 72.0831 6.2668C70.1515 4.33518 67.5316 3.25 64.7999 3.25H44.1999C41.4682 3.25 38.8483 4.33518 36.9167 6.2668C34.9851 8.19842 33.8999 10.8183 33.8999 13.55V95.95" stroke="#9C62CA" stroke-width="5" stroke-linecap="round" stroke-linejoin="round"/>
</g>
</svg>
