<svg width="138" height="98" viewBox="0 0 138 98" fill="none" xmlns="http://www.w3.org/2000/svg">
<path d="M132.237 17.1406C131.524 14.3107 130.073 11.718 128.029 9.62408C125.985 7.5302 123.422 6.00939 120.597 5.21525C110.278 2.71094 69 2.71094 69 2.71094C69 2.71094 27.7221 2.71094 17.4027 5.45376C14.5783 6.24789 12.0148 7.7687 9.97115 9.86258C7.92747 11.9565 6.47598 14.5492 5.76329 17.3791C3.87467 27.7872 2.95085 38.3456 3.00343 48.9215C2.93611 59.577 3.85999 70.2159 5.76329 80.7025C6.549 83.4444 8.03301 85.9385 10.0719 87.944C12.1108 89.9494 14.6357 91.3983 17.4027 92.1507C27.7221 94.8936 69 94.8936 69 94.8936C69 94.8936 110.278 94.8936 120.597 92.1507C123.422 91.3566 125.985 89.8358 128.029 87.7419C130.073 85.648 131.524 83.0553 132.237 80.2254C134.111 69.8957 135.035 59.4178 134.997 48.9215C135.064 38.266 134.14 27.6271 132.237 17.1406V17.1406Z" stroke="#8FCA62" stroke-opacity="0.3" stroke-width="5" stroke-linecap="round" stroke-linejoin="round"/>
<path d="M55.5007 68.4194L89.9989 48.9215L55.5007 29.4236V68.4194Z" stroke="#8FCA62" stroke-opacity="0.3" stroke-width="5" stroke-linecap="round" stroke-linejoin="round"/>
</svg>
