<svg width="21" height="21" viewBox="0 0 21 21" fill="none" xmlns="http://www.w3.org/2000/svg">
<path d="M19.9994 15.1781V17.9787C20.0005 18.2386 19.9472 18.496 19.8431 18.7342C19.7389 18.9724 19.5862 19.1862 19.3946 19.362C19.203 19.5378 18.9768 19.6716 18.7305 19.7549C18.4843 19.8382 18.2233 19.8691 17.9644 19.8457C15.0918 19.5336 12.3325 18.552 9.90814 16.9798C7.65261 15.5465 5.74032 13.6342 4.30706 11.3787C2.7294 8.94337 1.74759 6.17064 1.44117 3.28515C1.41784 3.027 1.44852 2.76683 1.53126 2.52119C1.61399 2.27554 1.74696 2.04982 1.92171 1.85839C2.09646 1.66695 2.30916 1.514 2.54626 1.40928C2.78336 1.30455 3.03966 1.25033 3.29886 1.25009H6.0994C6.55244 1.24563 6.99165 1.40606 7.33515 1.70147C7.67866 1.99689 7.90303 2.40713 7.96643 2.85573C8.08464 3.75197 8.30385 4.63196 8.61989 5.47891C8.74549 5.81303 8.77267 6.17616 8.69822 6.52527C8.62377 6.87437 8.4508 7.19481 8.19981 7.44862L7.01425 8.63418C8.34316 10.9713 10.2782 12.9064 12.6153 14.2353L13.8009 13.0497C14.0547 12.7987 14.3751 12.6257 14.7242 12.5513C15.0734 12.4768 15.4365 12.504 15.7706 12.6296C16.6176 12.9457 17.4975 13.1649 18.3938 13.2831C18.8473 13.3471 19.2614 13.5755 19.5574 13.9249C19.8535 14.2743 20.0108 14.7203 19.9994 15.1781Z" stroke="#71D4FF" stroke-width="2" stroke-linecap="round" stroke-linejoin="round"/>
</svg>
