<svg width="76" height="69" viewBox="0 0 76 69" fill="none" xmlns="http://www.w3.org/2000/svg">
<g opacity="0.2">
<path d="M66 17H10C6.13401 17 3 20.134 3 24V59C3 62.866 6.13401 66 10 66H66C69.866 66 73 62.866 73 59V24C73 20.134 69.866 17 66 17Z" stroke="#9C62CA" stroke-width="5" stroke-linecap="round" stroke-linejoin="round"/>
<path d="M52 66V10C52 8.14348 51.2625 6.36301 49.9497 5.05025C48.637 3.7375 46.8565 3 45 3H31C29.1435 3 27.363 3.7375 26.0503 5.05025C24.7375 6.36301 24 8.14348 24 10V66" stroke="#9C62CA" stroke-width="5" stroke-linecap="round" stroke-linejoin="round"/>
</g>
</svg>
