<svg width="46" height="54" viewBox="0 0 46 54" fill="none" xmlns="http://www.w3.org/2000/svg">
<path opacity="0.8" d="M46 0L0 31.3018V54L46 22.6982V0Z" fill="#E4E4E4"/>
<path d="M8.98888 43.7614L8.90566 29.3753L13.8615 25.7352C14.6777 25.1395 15.378 24.8379 15.9627 24.8304C16.5473 24.8229 16.9907 25.0857 17.2928 25.6188C17.5949 26.1519 17.7333 26.9247 17.708 27.937C17.6872 28.9554 17.5027 29.9638 17.1545 30.9622C16.8099 31.9579 16.3279 32.8867 15.7087 33.7485C15.0895 34.6102 14.3594 35.348 13.5184 35.9618L10.7453 37.9859L10.817 35.1781L13.1058 33.5075C13.5067 33.2149 13.8436 32.8772 14.1163 32.4944C14.3925 32.1091 14.6029 31.6988 14.7475 31.2636C14.8921 30.8283 14.9706 30.3825 14.9828 29.9261C14.9915 29.4722 14.9318 29.1296 14.8036 28.8981C14.675 28.6623 14.4776 28.5521 14.2114 28.5674C13.9487 28.5801 13.6205 28.7302 13.2266 29.0177L11.475 30.319L11.6236 41.8383L8.98888 43.7614Z" fill="#101111"/>
<path d="M18.4513 37.3611L18.371 23.1962L22.8739 19.9095C23.6901 19.3138 24.3908 18.9978 24.9762 18.9615C25.5611 18.9208 26.005 19.1526 26.3078 19.6569C26.6102 20.1569 26.7485 20.9108 26.7227 21.9188C26.7015 22.9329 26.5164 23.9181 26.1675 24.8746C25.8217 25.8241 25.3389 26.7088 24.719 27.5286C24.1027 28.3459 23.3793 29.0575 22.549 29.6636L19.7013 31.7421L19.7784 28.9303L22.1364 27.2093C22.5302 26.9218 22.8641 26.6098 23.1379 26.2734C23.4113 25.9325 23.6191 25.5689 23.7613 25.1825C23.9065 24.7892 23.9853 24.3643 23.9975 23.9079C24.0062 23.4541 23.9446 23.1293 23.8126 22.9336C23.6837 22.7309 23.4861 22.6538 23.2196 22.7023C22.9562 22.7438 22.6293 22.9071 22.239 23.192L20.9403 24.1399L21.0861 35.438L18.4513 37.3611ZM24.3052 26.7214L26.8529 31.4749L23.9787 33.5728L21.4895 28.7765L24.3052 26.7214Z" fill="#101111"/>
<path d="M37.444 17.5107C37.4005 19.1016 37.1412 20.6073 36.6661 22.028C36.1941 23.4417 35.5704 24.7071 34.7949 25.8243C34.023 26.9388 33.1615 27.8431 32.2105 28.5372C31.2063 29.2702 30.3074 29.6295 29.5138 29.6153C28.7202 29.601 28.1001 29.1893 27.6536 28.3801C27.2106 27.5682 27.0097 26.3372 27.0507 24.687C27.0871 23.1013 27.3409 21.5972 27.8119 20.1748C28.2865 18.7497 28.9131 17.4752 29.6917 16.3511C30.4733 15.2201 31.3432 14.3049 32.3013 13.6056C33.2984 12.8778 34.1922 12.5246 34.9827 12.5458C35.7768 12.5644 36.3955 12.9818 36.839 13.798C37.2824 14.6142 37.4841 15.8518 37.444 17.5107ZM34.7685 19.0538C34.7881 18.1304 34.7119 17.4206 34.54 16.9243C34.3717 16.4255 34.1157 16.1437 33.772 16.0789C33.4279 16.0098 33.0056 16.1578 32.5053 16.523C31.9517 16.9271 31.4695 17.4604 31.0585 18.1231C30.6505 18.7788 30.3317 19.5343 30.1021 20.3896C29.872 21.2405 29.7467 22.1586 29.7262 23.1439C29.6969 24.0838 29.7696 24.7962 29.944 25.2811C30.1221 25.7635 30.3863 26.0323 30.7365 26.0875C31.0864 26.1383 31.5079 25.9837 32.0011 25.6237C32.5512 25.2223 33.0286 24.6971 33.4334 24.0484C33.8383 23.3996 34.1542 22.6533 34.3812 21.8093C34.6118 20.9627 34.7409 20.0442 34.7685 19.0538Z" fill="#101111"/>
</svg>
