<svg width="24" height="18" viewBox="0 0 24 18" fill="none" xmlns="http://www.w3.org/2000/svg">
<path d="M22.5406 3.92C22.4218 3.44541 22.1799 3.01057 21.8392 2.65941C21.4986 2.30824 21.0713 2.05318 20.6006 1.92C18.8806 1.5 12.0006 1.5 12.0006 1.5C12.0006 1.5 5.12057 1.5 3.40057 1.96C2.92982 2.09318 2.50255 2.34824 2.16192 2.69941C1.82129 3.05057 1.57936 3.48541 1.46057 3.96C1.14579 5.70556 0.991808 7.47631 1.00057 9.25C0.989351 11.037 1.14334 12.8213 1.46057 14.58C1.59153 15.0398 1.83888 15.4581 2.17872 15.7945C2.51855 16.1308 2.93939 16.3738 3.40057 16.5C5.12057 16.96 12.0006 16.96 12.0006 16.96C12.0006 16.96 18.8806 16.96 20.6006 16.5C21.0713 16.3668 21.4986 16.1118 21.8392 15.7606C22.1799 15.4094 22.4218 14.9746 22.5406 14.5C22.8529 12.7676 23.0069 11.0103 23.0006 9.25C23.0118 7.46295 22.8578 5.6787 22.5406 3.92V3.92Z" stroke="#51AD19" stroke-width="1.5" stroke-linecap="round" stroke-linejoin="round"/>
<path d="M9.75061 12.52L15.5006 9.25001L9.75061 5.98001V12.52Z" stroke="#51AD19" stroke-width="1.5" stroke-linecap="round" stroke-linejoin="round"/>
</svg>
