<svg width="22" height="17" viewBox="0 0 22 17" fill="none" xmlns="http://www.w3.org/2000/svg">
<path d="M20.5813 3.67303C20.4733 3.24161 20.2534 2.84632 19.9438 2.5271C19.6341 2.20787 19.2457 1.97601 18.8178 1.85494C17.2542 1.47314 11 1.47314 11 1.47314C11 1.47314 4.74578 1.47314 3.18222 1.8913C2.75429 2.01238 2.36588 2.24423 2.05623 2.56346C1.74659 2.88268 1.52666 3.27797 1.41868 3.70939C1.13253 5.29618 0.992553 6.90587 1.00052 8.51823C0.99032 10.1427 1.1303 11.7647 1.41868 13.3634C1.53773 13.7815 1.76258 14.1617 2.0715 14.4675C2.38043 14.7732 2.76299 14.9941 3.18222 15.1088C4.74578 15.527 11 15.527 11 15.527C11 15.527 17.2542 15.527 18.8178 15.1088C19.2457 14.9877 19.6341 14.7559 19.9438 14.4366C20.2534 14.1174 20.4733 13.7221 20.5813 13.2907C20.8653 11.7159 21.0052 10.1185 20.9995 8.51823C21.0097 6.89373 20.8697 5.27176 20.5813 3.67303V3.67303Z" stroke="black" stroke-width="1.5" stroke-linecap="round" stroke-linejoin="round"/>
<path d="M8.95459 11.4908L14.1816 8.51823L8.95459 5.54565V11.4908Z" stroke="black" stroke-width="1.5" stroke-linecap="round" stroke-linejoin="round"/>
</svg>
