<svg width="138" height="125" viewBox="0 0 138 125" fill="none" xmlns="http://www.w3.org/2000/svg">
<g opacity="0.2">
<path d="M121.95 29.4336H16.2167C8.9173 29.4336 3 35.3509 3 42.6503V108.734C3 116.033 8.9173 121.95 16.2167 121.95H121.95C129.249 121.95 135.167 116.033 135.167 108.734V42.6503C135.167 35.3509 129.249 29.4336 121.95 29.4336Z" stroke="#9C62CA" stroke-width="5" stroke-linecap="round" stroke-linejoin="round"/>
<path d="M95.5166 121.95V16.2167C95.5166 12.7114 94.1241 9.34968 91.6455 6.87107C89.1669 4.39247 85.8052 3 82.2999 3H55.8666C52.3613 3 48.9996 4.39247 46.521 6.87107C44.0424 9.34968 42.6499 12.7114 42.6499 16.2167V121.95" stroke="#9C62CA" stroke-width="5" stroke-linecap="round" stroke-linejoin="round"/>
</g>
</svg>
