<svg width="34" height="33" viewBox="0 0 34 33" fill="none" xmlns="http://www.w3.org/2000/svg">
<path d="M25.3809 11.6667H26.9047C28.5212 11.6667 30.0716 12.3089 31.2147 13.452C32.3577 14.5951 32.9999 16.1454 32.9999 17.762C32.9999 19.3785 32.3577 20.9289 31.2147 22.072C30.0716 23.215 28.5212 23.8572 26.9047 23.8572H25.3809" stroke="black" stroke-width="2" stroke-linecap="round" stroke-linejoin="round"/>
<path d="M1 11.6667H25.381V25.381C25.381 26.9976 24.7388 28.5479 23.5957 29.691C22.4526 30.8341 20.9023 31.4763 19.2857 31.4763H7.09524C5.47868 31.4763 3.92833 30.8341 2.78525 29.691C1.64218 28.5479 1 26.9976 1 25.381V11.6667Z" stroke="black" stroke-width="2" stroke-linecap="round" stroke-linejoin="round"/>
<path d="M7.09521 1V5.57143" stroke="black" stroke-width="2" stroke-linecap="round" stroke-linejoin="round"/>
<path d="M13.1904 1V5.57143" stroke="black" stroke-width="2" stroke-linecap="round" stroke-linejoin="round"/>
<path d="M19.2856 1V5.57143" stroke="black" stroke-width="2" stroke-linecap="round" stroke-linejoin="round"/>
</svg>
