<svg width="342" height="105" viewBox="0 0 342 105" fill="none" xmlns="http://www.w3.org/2000/svg">
<path fill-rule="evenodd" clip-rule="evenodd" d="M35.0931 44.082L61.1434 59.4127L108.98 45.4931L134.906 59.5133L166.04 46.541L169.242 54.2257L134.441 68.7259L108.026 54.4411L60.0185 68.4103L33.7282 52.9384L1.86621 60.2674L0 52.1543L35.0931 44.082Z" fill="#3E3E3E"/>
<path fill-rule="evenodd" clip-rule="evenodd" d="M164.129 51.8642L146.257 42.7563L150.107 35.325L174.373 47.6916L165.531 72.9451L157.681 70.2793L164.129 51.8642Z" fill="#3E3E3E"/>
<path d="M142.041 63.5994C142.041 67.6799 138.733 70.9878 134.652 70.9878C130.572 70.9878 127.264 67.6799 127.264 63.5994C127.264 59.5189 130.572 56.2109 134.652 56.2109C138.733 56.2109 142.041 59.5189 142.041 63.5994Z" fill="#1E1E1E"/>
<path fill-rule="evenodd" clip-rule="evenodd" d="M134.653 60.3738C132.872 60.3738 131.428 61.8181 131.428 63.5998C131.428 65.3814 132.872 66.8257 134.653 66.8257C136.435 66.8257 137.879 65.3814 137.879 63.5998C137.879 61.8181 136.435 60.3738 134.653 60.3738ZM123.103 63.5998C123.103 57.2204 128.274 52.0488 134.653 52.0488C141.033 52.0488 146.204 57.2204 146.204 63.5998C146.204 69.9792 141.033 75.1507 134.653 75.1507C128.274 75.1507 123.103 69.9792 123.103 63.5998Z" fill="#3E3E3E"/>
<path d="M42.5584 49.863C42.5584 53.9436 39.2504 57.2515 35.1699 57.2515C31.0894 57.2515 27.7815 53.9436 27.7815 49.863C27.7815 45.7825 31.0894 42.4746 35.1699 42.4746C39.2504 42.4746 42.5584 45.7825 42.5584 49.863Z" fill="#1E1E1E"/>
<path fill-rule="evenodd" clip-rule="evenodd" d="M35.1693 46.637C33.3877 46.637 31.9434 48.0813 31.9434 49.8629C31.9434 51.6446 33.3877 53.0889 35.1693 53.0889C36.951 53.0889 38.3953 51.6446 38.3953 49.8629C38.3953 48.0813 36.951 46.637 35.1693 46.637ZM23.6184 49.8629C23.6184 43.4835 28.7899 38.312 35.1693 38.312C41.5487 38.312 46.7203 43.4835 46.7203 49.8629C46.7203 56.2423 41.5487 61.4139 35.1693 61.4139C28.7899 61.4139 23.6184 56.2423 23.6184 49.8629Z" fill="#3E3E3E"/>
<path d="M48.7549 0L85.2967 24.4759V52.46L48.7549 27.9842V0Z" fill="#4D6696" fill-opacity="0.8"/>
<path opacity="0.8" d="M35.6586 24.6101L35.4917 87.0893L58.5277 102.744L58.6945 40.2647L35.6586 24.6101Z" fill="#CAB362"/>
<path opacity="0.8" d="M113.414 22.0832L113.247 84.5625L136.283 100.162L136.45 37.6831L113.414 22.0832Z" fill="#9C62CA"/>
<path opacity="0.8" d="M106.425 21.9248L50.1604 60.4585V88.4009L106.425 49.8672V21.9248Z" fill="#8FCA62"/>
<path opacity="0.8" d="M85.2974 52.46L122.14 75.8547V104.92L85.2974 80.4295V52.46Z" fill="#4D6696"/>
<path d="M206.705 46.9796V22H217.071C217.31 22 217.628 22.0116 218.026 22.0347C218.435 22.0463 218.798 22.081 219.117 22.1388C220.583 22.3701 221.782 22.8616 222.714 23.6133C223.658 24.365 224.351 25.3133 224.794 26.4582C225.237 27.5915 225.459 28.8578 225.459 30.2571C225.459 31.6565 225.232 32.9286 224.777 34.0735C224.334 35.2068 223.64 36.1493 222.697 36.901C221.765 37.6527 220.572 38.1442 219.117 38.3755C218.798 38.4218 218.435 38.4565 218.026 38.4796C217.616 38.5027 217.298 38.5143 217.071 38.5143H211.342V46.9796H206.705ZM211.342 34.1082H216.866C217.105 34.1082 217.366 34.0966 217.651 34.0735C217.935 34.0503 218.196 34.0041 218.435 33.9347C219.06 33.7612 219.543 33.4721 219.884 33.0673C220.225 32.651 220.458 32.1942 220.583 31.6969C220.719 31.1881 220.788 30.7082 220.788 30.2571C220.788 29.8061 220.719 29.332 220.583 28.8347C220.458 28.3259 220.225 27.869 219.884 27.4643C219.543 27.048 219.06 26.7531 218.435 26.5796C218.196 26.5102 217.935 26.4639 217.651 26.4408C217.366 26.4177 217.105 26.4061 216.866 26.4061H211.342V34.1082Z" fill="white"/>
<path d="M235.463 47.5C233.611 47.5 231.985 47.0779 230.587 46.2337C229.189 45.3895 228.098 44.2272 227.314 42.7469C226.541 41.2551 226.154 39.5435 226.154 37.6122C226.154 35.6578 226.552 33.9405 227.348 32.4602C228.143 30.9684 229.24 29.8061 230.638 28.9735C232.036 28.1408 233.645 27.7245 235.463 27.7245C237.316 27.7245 238.941 28.1466 240.339 28.9908C241.749 29.835 242.846 31.0031 243.63 32.4949C244.414 33.9752 244.806 35.681 244.806 37.6122C244.806 39.5551 244.408 41.2724 243.613 42.7643C242.828 44.2446 241.732 45.4068 240.322 46.251C238.924 47.0837 237.305 47.5 235.463 47.5ZM235.463 43.0939C236.952 43.0939 238.06 42.585 238.788 41.5673C239.527 40.5381 239.896 39.2197 239.896 37.6122C239.896 35.9469 239.521 34.617 238.771 33.6224C238.032 32.6279 236.929 32.1306 235.463 32.1306C234.452 32.1306 233.622 32.3619 232.974 32.8245C232.326 33.2871 231.843 33.9289 231.525 34.75C231.218 35.5711 231.065 36.5252 231.065 37.6122C231.065 39.2891 231.434 40.6248 232.173 41.6194C232.923 42.6024 234.02 43.0939 235.463 43.0939Z" fill="white"/>
<path d="M246.816 46.9796V28.2449H250.567L256.978 40.3878L263.388 28.2449H267.139V46.9796H262.706V37.6469L257.796 46.9796H256.159L251.249 37.6469V46.9796H246.816Z" fill="white"/>
<path d="M275.335 47.5C274.016 47.5 272.897 47.2456 271.976 46.7367C271.067 46.2163 270.373 45.5282 269.896 44.6724C269.43 43.8051 269.197 42.851 269.197 41.8102C269.197 40.9429 269.328 40.1507 269.589 39.4337C269.85 38.7167 270.271 38.0864 270.851 37.5429C271.442 36.9878 272.232 36.5252 273.221 36.1551C273.903 35.9007 274.715 35.6752 275.659 35.4786C276.602 35.282 277.67 35.0969 278.864 34.9235C280.057 34.7384 281.37 34.5361 282.802 34.3163L281.131 35.2531C281.131 34.1429 280.87 33.3276 280.347 32.8071C279.824 32.2867 278.949 32.0265 277.722 32.0265C277.04 32.0265 276.329 32.1942 275.59 32.5296C274.852 32.865 274.334 33.4605 274.039 34.3163L269.845 32.9633C270.311 31.4136 271.186 30.1531 272.47 29.1816C273.755 28.2102 275.505 27.7245 277.722 27.7245C279.347 27.7245 280.79 27.9789 282.052 28.4878C283.314 28.9966 284.268 29.8755 284.916 31.1245C285.28 31.8184 285.496 32.5122 285.564 33.2061C285.632 33.9 285.666 34.6748 285.666 35.5306V46.9796H281.609V43.1286L282.188 43.9265C281.291 45.1871 280.319 46.1007 279.273 46.6673C278.239 47.2224 276.926 47.5 275.335 47.5ZM276.324 43.7878C277.176 43.7878 277.892 43.6374 278.472 43.3367C279.063 43.0245 279.529 42.6718 279.87 42.2786C280.222 41.8854 280.461 41.5558 280.586 41.2898C280.825 40.781 280.961 40.1912 280.995 39.5204C281.04 38.8381 281.063 38.2714 281.063 37.8204L282.427 38.1673C281.052 38.3986 279.938 38.5952 279.085 38.7571C278.233 38.9075 277.545 39.0463 277.023 39.1735C276.5 39.3007 276.039 39.4395 275.642 39.5898C275.187 39.7748 274.817 39.9772 274.533 40.1969C274.261 40.4051 274.056 40.6364 273.92 40.8908C273.795 41.1452 273.732 41.4286 273.732 41.7408C273.732 42.1687 273.834 42.5388 274.039 42.851C274.255 43.1517 274.556 43.383 274.943 43.5449C275.329 43.7068 275.789 43.7878 276.324 43.7878Z" fill="white"/>
<path d="M288.361 46.9796V28.2449H292.998V35.3918H300.568V28.2449H305.205V46.9796H300.568V39.798H292.998V46.9796H288.361Z" fill="white"/>
<path d="M205 81.6735L212.502 56.6939H219.424L226.925 81.6735H222.152L215.468 59.6429H216.355L209.774 81.6735H205ZM209.501 76.4694V72.0633H222.458V76.4694H209.501Z" fill="white"/>
<path d="M228.242 81.6735V62.9388H232.879V70.0857H240.449V62.9388H245.087V81.6735H240.449V74.4918H232.879V81.6735H228.242Z" fill="white"/>
<path d="M246.785 85.8367V78.0306C247.763 78.0306 248.456 77.6837 248.865 76.9898C249.286 76.2959 249.615 75.0585 249.854 73.2775C249.99 72.2483 250.104 71.167 250.195 70.0337C250.297 68.9003 250.383 67.7381 250.451 66.5469C250.519 65.3558 250.582 64.1531 250.638 62.9388H264.857V78.0306H266.733V85.8367H262.368V81.6735H251.15V85.8367H246.785ZM252.718 78.0306H260.22V66.5816H254.662C254.628 67.2177 254.588 67.8537 254.543 68.4898C254.509 69.1258 254.463 69.7561 254.406 70.3806C254.361 71.0051 254.315 71.6122 254.27 72.202C254.224 72.7803 254.173 73.3354 254.116 73.8673C254.014 74.885 253.872 75.7119 253.69 76.348C253.508 76.984 253.184 77.5449 252.718 78.0306Z" fill="white"/>
<path d="M277.458 82.1939C275.628 82.1939 274.099 81.7602 272.872 80.8929C271.644 80.0255 270.718 78.8459 270.093 77.3541C269.479 75.8622 269.172 74.1796 269.172 72.3061C269.172 70.4327 269.479 68.75 270.093 67.2582C270.706 65.7663 271.61 64.5867 272.803 63.7194C273.997 62.852 275.469 62.4184 277.219 62.4184C278.981 62.4184 280.515 62.8463 281.822 63.702C283.13 64.5578 284.141 65.7316 284.857 67.2235C285.585 68.7037 285.948 70.398 285.948 72.3061C285.948 74.1796 285.59 75.8622 284.874 77.3541C284.17 78.8459 283.181 80.0255 281.908 80.8929C280.635 81.7602 279.151 82.1939 277.458 82.1939ZM268.388 90V62.9388H272.479V75.7755H273.059V90H268.388ZM276.708 77.9959C277.708 77.9959 278.526 77.7415 279.163 77.2327C279.799 76.7238 280.271 76.0415 280.578 75.1857C280.885 74.3184 281.038 73.3585 281.038 72.3061C281.038 71.2653 280.879 70.317 280.561 69.4612C280.243 68.5939 279.748 67.9058 279.077 67.3969C278.418 66.8765 277.571 66.6163 276.537 66.6163C275.571 66.6163 274.787 66.8534 274.184 67.3275C273.593 67.8017 273.161 68.4667 272.889 69.3224C272.616 70.1782 272.479 71.1728 272.479 72.3061C272.479 73.4395 272.616 74.434 272.889 75.2898C273.161 76.1456 273.605 76.8105 274.218 77.2847C274.844 77.7588 275.673 77.9959 276.708 77.9959Z" fill="white"/>
<path d="M296.554 82.1939C294.667 82.1939 293.002 81.7833 291.558 80.9622C290.126 80.1296 289.001 78.9905 288.183 77.5449C287.376 76.0878 286.972 74.4224 286.972 72.549C286.972 70.502 287.37 68.7211 288.166 67.2061C288.961 65.6912 290.058 64.5173 291.456 63.6847C292.854 62.8405 294.462 62.4184 296.281 62.4184C298.213 62.4184 299.856 62.8809 301.208 63.8061C302.561 64.7313 303.561 66.0323 304.209 67.7092C304.857 69.3861 305.084 71.3578 304.891 73.6245H300.305V71.8898C300.305 69.9816 300.003 68.6112 299.401 67.7786C298.81 66.9344 297.838 66.5122 296.486 66.5122C294.906 66.5122 293.741 67.0037 292.99 67.9867C292.252 68.9582 291.882 70.398 291.882 72.3061C291.882 74.0524 292.252 75.4054 292.99 76.3653C293.741 77.3136 294.837 77.7878 296.281 77.7878C297.19 77.7878 297.969 77.5854 298.617 77.1806C299.265 76.7758 299.759 76.1918 300.1 75.4286L304.737 76.7816C304.044 78.4932 302.947 79.8231 301.447 80.7714C299.958 81.7197 298.327 82.1939 296.554 82.1939ZM290.45 73.6245V70.1204H302.657V73.6245H290.45Z" fill="white"/>
<path d="M315.594 82.1939C313.707 82.1939 312.042 81.7833 310.599 80.9622C309.167 80.1296 308.041 78.9905 307.223 77.5449C306.416 76.0878 306.013 74.4224 306.013 72.549C306.013 70.502 306.41 68.7211 307.206 67.2061C308.002 65.6912 309.098 64.5173 310.497 63.6847C311.895 62.8405 313.503 62.4184 315.321 62.4184C317.254 62.4184 318.896 62.8809 320.249 63.8061C321.601 64.7313 322.601 66.0323 323.249 67.7092C323.897 69.3861 324.125 71.3578 323.931 73.6245H319.345V71.8898C319.345 69.9816 319.044 68.6112 318.441 67.7786C317.85 66.9344 316.879 66.5122 315.526 66.5122C313.946 66.5122 312.781 67.0037 312.031 67.9867C311.292 68.9582 310.923 70.398 310.923 72.3061C310.923 74.0524 311.292 75.4054 312.031 76.3653C312.781 77.3136 313.878 77.7878 315.321 77.7878C316.231 77.7878 317.009 77.5854 317.657 77.1806C318.305 76.7758 318.799 76.1918 319.14 75.4286L323.778 76.7816C323.085 78.4932 321.988 79.8231 320.487 80.7714C318.998 81.7197 317.367 82.1939 315.594 82.1939ZM309.491 73.6245V70.1204H321.698V73.6245H309.491Z" fill="white"/>
<path d="M326.042 81.6735V62.9388H334.669C335.351 62.9388 335.948 62.9793 336.459 63.0602C336.97 63.1296 337.397 63.2163 337.738 63.3204C338.579 63.5748 339.346 64.0721 340.039 64.8122C340.733 65.5524 341.079 66.6279 341.079 68.0388C341.079 68.8714 340.949 69.548 340.687 70.0684C340.426 70.5772 340.079 70.9993 339.647 71.3347C339.443 71.485 339.238 71.6122 339.033 71.7163C338.829 71.8204 338.624 71.9014 338.42 71.9592C338.897 72.0286 339.329 72.1558 339.715 72.3408C340.329 72.6184 340.863 73.0578 341.318 73.6592C341.773 74.249 342 75.1279 342 76.2959C342 77.5449 341.699 78.6088 341.096 79.4878C340.505 80.3667 339.613 80.9796 338.42 81.3265C338.01 81.4422 337.527 81.5289 336.97 81.5867C336.425 81.6446 335.851 81.6735 335.249 81.6735H326.042ZM330.748 78.1H334.908C335.146 78.1 335.391 78.0769 335.641 78.0306C335.902 77.9728 336.135 77.9034 336.34 77.8224C336.669 77.6837 336.902 77.4466 337.039 77.1112C337.186 76.7758 337.26 76.4347 337.26 76.0878C337.26 75.602 337.152 75.2204 336.936 74.9429C336.732 74.6653 336.499 74.4687 336.237 74.3531C336.021 74.249 335.783 74.1912 335.521 74.1796C335.271 74.1565 335.067 74.1449 334.908 74.1449H330.748V78.1ZM330.748 70.502H333.578C333.941 70.502 334.282 70.4847 334.601 70.45C334.93 70.4037 335.203 70.3286 335.419 70.2245C335.715 70.0857 335.936 69.866 336.084 69.5653C336.232 69.2531 336.306 68.9061 336.306 68.5245C336.306 68.1197 336.22 67.7554 336.05 67.4316C335.891 67.0963 335.624 66.8707 335.249 66.7551C334.998 66.6626 334.68 66.6105 334.294 66.599C333.919 66.5874 333.68 66.5816 333.578 66.5816H330.748V70.502Z" fill="white"/>
</svg>
