<svg width="261" height="69" viewBox="0 0 261 69" fill="none" xmlns="http://www.w3.org/2000/svg">
<path fill-rule="evenodd" clip-rule="evenodd" d="M22.0611 28.9678L39.1798 39.0421L70.6154 29.895L87.6521 39.1082L108.112 30.5837L110.216 35.6336L87.3463 45.1622L69.988 35.7751L38.4405 44.9548L21.1641 34.7876L0.22636 39.6038L-1 34.2724L22.0611 28.9678Z" fill="#3E3E3E"/>
<path fill-rule="evenodd" clip-rule="evenodd" d="M106.856 34.0818L95.1118 28.0966L97.6417 23.2133L113.588 31.3398L107.777 47.9349L102.619 46.1831L106.856 34.0818Z" fill="#3E3E3E"/>
<path d="M92.3418 41.7932C92.3418 44.4747 90.168 46.6485 87.4865 46.6485C84.805 46.6485 82.6313 44.4747 82.6313 41.7932C82.6313 39.1118 84.805 36.938 87.4865 36.938C90.168 36.938 92.3418 39.1118 92.3418 41.7932Z" fill="#1E1E1E"/>
<path fill-rule="evenodd" clip-rule="evenodd" d="M87.4855 39.6738C86.3148 39.6738 85.3656 40.6229 85.3656 41.7937C85.3656 42.9645 86.3148 43.9136 87.4855 43.9136C88.6563 43.9136 89.6054 42.9645 89.6054 41.7937C89.6054 40.6229 88.6563 39.6738 87.4855 39.6738ZM79.895 41.7937C79.895 37.6015 83.2934 34.2031 87.4855 34.2031C91.6777 34.2031 95.0761 37.6015 95.0761 41.7937C95.0761 45.9859 91.6777 49.3843 87.4855 49.3843C83.2934 49.3843 79.895 45.9859 79.895 41.7937Z" fill="#3E3E3E"/>
<path d="M26.9666 32.7669C26.9666 35.4483 24.7929 37.6221 22.1114 37.6221C19.4299 37.6221 17.2562 35.4483 17.2562 32.7669C17.2562 30.0854 19.4299 27.9116 22.1114 27.9116C24.7929 27.9116 26.9666 30.0854 26.9666 32.7669Z" fill="#1E1E1E"/>
<path fill-rule="evenodd" clip-rule="evenodd" d="M22.1104 30.647C20.9396 30.647 19.9905 31.5961 19.9905 32.7668C19.9905 33.9376 20.9396 34.8867 22.1104 34.8867C23.2811 34.8867 24.2302 33.9376 24.2302 32.7668C24.2302 31.5961 23.2811 30.647 22.1104 30.647ZM14.5198 32.7668C14.5198 28.5747 17.9182 25.1763 22.1104 25.1763C26.3025 25.1763 29.7009 28.5747 29.7009 32.7668C29.7009 36.959 26.3025 40.3574 22.1104 40.3574C17.9182 40.3574 14.5198 36.959 14.5198 32.7668Z" fill="#3E3E3E"/>
<path d="M31.0381 0L55.0512 16.0841V34.4736L31.0381 18.3895V0Z" fill="#4D6696" fill-opacity="0.8"/>
<path opacity="0.8" d="M22.4331 16.1719L22.3235 57.2295L37.4614 67.5168L37.5709 26.4592L22.4331 16.1719Z" fill="#CAB362"/>
<path opacity="0.8" d="M73.5295 14.5117L73.4198 55.5693L88.5577 65.8206L88.6673 24.763L73.5295 14.5117Z" fill="#9C62CA"/>
<path opacity="0.8" d="M70.908 14.4077L33.9345 39.7297V58.0918L70.908 32.7698V14.4077Z" fill="#8FCA62"/>
<path opacity="0.8" d="M55.052 34.4736L79.2624 49.8472V68.9472L55.052 52.8535V34.4736Z" fill="#4D6696"/>
<path d="M136.82 29V10.28H144.217C144.399 10.28 144.616 10.2887 144.867 10.306C145.118 10.3147 145.361 10.3407 145.595 10.384C146.609 10.54 147.458 10.8867 148.143 11.424C148.836 11.9613 149.356 12.6417 149.703 13.465C150.05 14.2797 150.223 15.1853 150.223 16.182C150.223 17.17 150.045 18.0757 149.69 18.899C149.343 19.7137 148.823 20.394 148.13 20.94C147.445 21.4773 146.6 21.824 145.595 21.98C145.361 22.0147 145.118 22.0407 144.867 22.058C144.616 22.0753 144.399 22.084 144.217 22.084H139.134V29H136.82ZM139.134 19.887H144.139C144.304 19.887 144.49 19.8783 144.698 19.861C144.915 19.8437 145.118 19.8133 145.309 19.77C145.907 19.6313 146.392 19.38 146.765 19.016C147.146 18.6433 147.424 18.21 147.597 17.716C147.77 17.2133 147.857 16.702 147.857 16.182C147.857 15.662 147.77 15.155 147.597 14.661C147.424 14.1583 147.146 13.7207 146.765 13.348C146.392 12.9753 145.907 12.724 145.309 12.594C145.118 12.542 144.915 12.5117 144.698 12.503C144.49 12.4857 144.304 12.477 144.139 12.477H139.134V19.887ZM157.496 29.39C156.101 29.39 154.896 29.0737 153.882 28.441C152.877 27.8083 152.101 26.933 151.555 25.815C151.009 24.697 150.736 23.4143 150.736 21.967C150.736 20.4937 151.013 19.2023 151.568 18.093C152.123 16.9837 152.907 16.1213 153.921 15.506C154.935 14.882 156.127 14.57 157.496 14.57C158.9 14.57 160.109 14.8863 161.123 15.519C162.137 16.143 162.913 17.014 163.45 18.132C163.996 19.2413 164.269 20.5197 164.269 21.967C164.269 23.4317 163.996 24.723 163.45 25.841C162.904 26.9503 162.124 27.8213 161.11 28.454C160.096 29.078 158.891 29.39 157.496 29.39ZM157.496 27.193C158.952 27.193 160.035 26.7077 160.746 25.737C161.457 24.7663 161.812 23.5097 161.812 21.967C161.812 20.381 161.452 19.12 160.733 18.184C160.014 17.2393 158.935 16.767 157.496 16.767C156.517 16.767 155.711 16.988 155.078 17.43C154.445 17.872 153.973 18.483 153.661 19.263C153.349 20.043 153.193 20.9443 153.193 21.967C153.193 23.5443 153.557 24.8097 154.285 25.763C155.013 26.7163 156.083 27.193 157.496 27.193ZM165.818 29V14.96H167.807L173.137 25.854L178.467 14.96H180.456V29H178.22V19.783L173.748 29H172.526L168.054 19.783V29H165.818ZM186.778 29.39C185.73 29.39 184.85 29.1993 184.139 28.818C183.437 28.428 182.904 27.9167 182.54 27.284C182.185 26.6513 182.007 25.958 182.007 25.204C182.007 24.4673 182.146 23.8303 182.423 23.293C182.709 22.747 183.108 22.2963 183.619 21.941C184.131 21.577 184.742 21.291 185.452 21.083C186.12 20.901 186.865 20.745 187.688 20.615C188.52 20.4763 189.361 20.3507 190.21 20.238C191.06 20.1253 191.853 20.017 192.589 19.913L191.757 20.394C191.783 19.146 191.532 18.223 191.003 17.625C190.483 17.027 189.582 16.728 188.299 16.728C187.45 16.728 186.705 16.923 186.063 17.313C185.431 17.6943 184.984 18.3183 184.724 19.185L182.527 18.522C182.865 17.2913 183.52 16.325 184.49 15.623C185.461 14.921 186.739 14.57 188.325 14.57C189.599 14.57 190.691 14.7997 191.601 15.259C192.52 15.7097 193.179 16.3943 193.577 17.313C193.777 17.7463 193.902 18.2187 193.954 18.73C194.006 19.2327 194.032 19.7613 194.032 20.316V29H191.978V25.633L192.459 25.945C191.931 27.0803 191.19 27.9383 190.236 28.519C189.292 29.0997 188.139 29.39 186.778 29.39ZM187.129 27.453C187.961 27.453 188.681 27.3057 189.287 27.011C189.903 26.7077 190.397 26.3133 190.769 25.828C191.142 25.334 191.385 24.7967 191.497 24.216C191.627 23.7827 191.697 23.3017 191.705 22.773C191.723 22.2357 191.731 21.824 191.731 21.538L192.537 21.889C191.783 21.993 191.042 22.0927 190.314 22.188C189.586 22.2833 188.897 22.3873 188.247 22.5C187.597 22.604 187.012 22.7297 186.492 22.877C186.111 22.9983 185.751 23.1543 185.413 23.345C185.084 23.5357 184.815 23.7827 184.607 24.086C184.408 24.3807 184.308 24.749 184.308 25.191C184.308 25.5723 184.404 25.9363 184.594 26.283C184.794 26.6297 185.097 26.9113 185.504 27.128C185.92 27.3447 186.462 27.453 187.129 27.453ZM196.099 29V14.96H198.413V20.875H205.797V14.96H208.111V29H205.797V23.072H198.413V29H196.099ZM135.52 55L141.786 36.28H145.01L151.276 55H148.871L143.008 37.632H143.736L137.925 55H135.52ZM138.536 50.619V48.448H148.26V50.619H138.536ZM152.29 55V40.96H154.604V46.875H161.988V40.96H164.302V55H161.988V49.072H154.604V55H152.29ZM165.604 58.12V53.089C166.392 53.089 166.956 52.8333 167.294 52.322C167.632 51.802 167.905 50.9483 168.113 49.761C168.251 49.0157 168.364 48.2183 168.451 47.369C168.537 46.5197 168.611 45.575 168.672 44.535C168.741 43.4863 168.806 42.2947 168.867 40.96H178.539V53.089H179.904V58.12H177.694V55H167.814V58.12H165.604ZM169.166 53.089H176.225V42.871H170.96C170.934 43.4863 170.899 44.132 170.856 44.808C170.812 45.4753 170.76 46.1427 170.7 46.81C170.648 47.4773 170.583 48.11 170.505 48.708C170.435 49.2973 170.353 49.826 170.258 50.294C170.145 50.944 170.015 51.4943 169.868 51.945C169.72 52.3957 169.486 52.777 169.166 53.089ZM187.661 55.39C186.344 55.39 185.234 55.065 184.333 54.415C183.432 53.7563 182.747 52.868 182.279 51.75C181.82 50.6233 181.59 49.3623 181.59 47.967C181.59 46.5543 181.82 45.289 182.279 44.171C182.747 43.053 183.432 42.1733 184.333 41.532C185.243 40.8907 186.357 40.57 187.674 40.57C188.974 40.57 190.092 40.895 191.028 41.545C191.973 42.1863 192.696 43.066 193.199 44.184C193.702 45.302 193.953 46.563 193.953 47.967C193.953 49.371 193.702 50.632 193.199 51.75C192.696 52.868 191.973 53.7563 191.028 54.415C190.092 55.065 188.97 55.39 187.661 55.39ZM181.2 61.24V40.96H183.267V51.295H183.527V61.24H181.2ZM187.375 53.271C188.302 53.271 189.069 53.037 189.676 52.569C190.283 52.101 190.738 51.4683 191.041 50.671C191.344 49.865 191.496 48.9637 191.496 47.967C191.496 46.979 191.344 46.0863 191.041 45.289C190.746 44.4917 190.287 43.859 189.663 43.391C189.048 42.923 188.263 42.689 187.31 42.689C186.4 42.689 185.646 42.9143 185.048 43.365C184.45 43.807 184.004 44.4267 183.709 45.224C183.414 46.0127 183.267 46.927 183.267 47.967C183.267 48.9897 183.41 49.904 183.696 50.71C183.991 51.5073 184.441 52.1357 185.048 52.595C185.655 53.0457 186.43 53.271 187.375 53.271ZM201.587 55.39C200.209 55.39 199.004 55.0867 197.973 54.48C196.95 53.8647 196.153 53.011 195.581 51.919C195.009 50.8183 194.723 49.5357 194.723 48.071C194.723 46.537 195.004 45.211 195.568 44.093C196.131 42.9663 196.915 42.0997 197.921 41.493C198.935 40.8777 200.122 40.57 201.483 40.57C202.895 40.57 204.096 40.895 205.084 41.545C206.08 42.195 206.826 43.1223 207.32 44.327C207.822 45.5317 208.039 46.966 207.97 48.63H205.63V47.798C205.604 46.0733 205.253 44.7863 204.577 43.937C203.901 43.079 202.895 42.65 201.561 42.65C200.131 42.65 199.043 43.1093 198.298 44.028C197.552 44.9467 197.18 46.264 197.18 47.98C197.18 49.6353 197.552 50.918 198.298 51.828C199.043 52.738 200.105 53.193 201.483 53.193C202.41 53.193 203.216 52.9807 203.901 52.556C204.585 52.1313 205.123 51.5203 205.513 50.723L207.736 51.49C207.19 52.7293 206.366 53.6913 205.266 54.376C204.174 55.052 202.947 55.39 201.587 55.39ZM196.4 48.63V46.771H206.774V48.63H196.4ZM215.648 55.39C214.27 55.39 213.065 55.0867 212.034 54.48C211.011 53.8647 210.214 53.011 209.642 51.919C209.07 50.8183 208.784 49.5357 208.784 48.071C208.784 46.537 209.066 45.211 209.629 44.093C210.192 42.9663 210.977 42.0997 211.982 41.493C212.996 40.8777 214.183 40.57 215.544 40.57C216.957 40.57 218.157 40.895 219.145 41.545C220.142 42.195 220.887 43.1223 221.381 44.327C221.884 45.5317 222.1 46.966 222.031 48.63H219.691V47.798C219.665 46.0733 219.314 44.7863 218.638 43.937C217.962 43.079 216.957 42.65 215.622 42.65C214.192 42.65 213.104 43.1093 212.359 44.028C211.614 44.9467 211.241 46.264 211.241 47.98C211.241 49.6353 211.614 50.918 212.359 51.828C213.104 52.738 214.166 53.193 215.544 53.193C216.471 53.193 217.277 52.9807 217.962 52.556C218.647 52.1313 219.184 51.5203 219.574 50.723L221.797 51.49C221.251 52.7293 220.428 53.6913 219.327 54.376C218.235 55.052 217.009 55.39 215.648 55.39ZM210.461 48.63V46.771H220.835V48.63H210.461ZM223.612 55V40.96H229.592C229.948 40.96 230.329 40.9817 230.736 41.025C231.152 41.0597 231.529 41.1247 231.867 41.22C232.621 41.4193 233.241 41.831 233.726 42.455C234.22 43.0703 234.467 43.8503 234.467 44.795C234.467 45.3237 234.385 45.783 234.22 46.173C234.064 46.563 233.839 46.901 233.544 47.187C233.414 47.317 233.271 47.434 233.115 47.538C232.959 47.642 232.803 47.7243 232.647 47.785C232.951 47.837 233.258 47.954 233.57 48.136C234.064 48.4047 234.45 48.7817 234.727 49.267C235.013 49.7523 235.156 50.372 235.156 51.126C235.156 52.0793 234.927 52.868 234.467 53.492C234.008 54.1073 233.375 54.532 232.569 54.766C232.231 54.8613 231.859 54.9263 231.451 54.961C231.044 54.987 230.65 55 230.268 55H223.612ZM225.952 53.115H230.138C230.32 53.115 230.537 53.0977 230.788 53.063C231.048 53.0283 231.278 52.985 231.477 52.933C231.928 52.803 232.253 52.5603 232.452 52.205C232.66 51.8497 232.764 51.464 232.764 51.048C232.764 50.4933 232.608 50.0427 232.296 49.696C231.993 49.3493 231.59 49.1327 231.087 49.046C230.905 48.994 230.706 48.9637 230.489 48.955C230.281 48.9463 230.095 48.942 229.93 48.942H225.952V53.115ZM225.952 47.031H229.436C229.679 47.031 229.935 47.018 230.203 46.992C230.472 46.9573 230.706 46.901 230.905 46.823C231.304 46.6757 231.594 46.433 231.776 46.095C231.967 45.7483 232.062 45.3713 232.062 44.964C232.062 44.5133 231.958 44.119 231.75 43.781C231.551 43.4343 231.243 43.196 230.827 43.066C230.55 42.962 230.238 42.9057 229.891 42.897C229.553 42.8797 229.337 42.871 229.241 42.871H225.952V47.031Z" fill="white"/>
</svg>
