<svg width="137" height="68" viewBox="0 0 137 68" fill="none" xmlns="http://www.w3.org/2000/svg">
<path d="M1.70492 24.9796V0H12.0708C12.3095 0 12.6278 0.0115645 13.0256 0.0346934C13.4348 0.0462586 13.7985 0.0809527 14.1167 0.138776C15.583 0.370068 16.7821 0.861564 17.7141 1.61326C18.6575 2.36497 19.3509 3.31327 19.7941 4.45816C20.2374 5.5915 20.4591 6.85782 20.4591 8.25714C20.4591 9.65646 20.2317 10.9286 19.7771 12.0735C19.3338 13.2068 18.6405 14.1493 17.6971 14.901C16.7651 15.6527 15.5716 16.1442 14.1167 16.3755C13.7985 16.4218 13.4348 16.4565 13.0256 16.4796C12.6164 16.5027 12.2982 16.5143 12.0708 16.5143H6.34231V24.9796H1.70492ZM6.34231 12.1082H11.8663C12.1049 12.1082 12.3664 12.0966 12.6505 12.0735C12.9347 12.0503 13.1961 12.0041 13.4348 11.9347C14.0599 11.7612 14.543 11.4721 14.884 11.0673C15.2249 10.651 15.458 10.1942 15.583 9.69694C15.7194 9.18809 15.7876 8.70816 15.7876 8.25714C15.7876 7.80612 15.7194 7.33197 15.583 6.83469C15.458 6.32585 15.2249 5.86905 14.884 5.46429C14.543 5.04796 14.0599 4.75306 13.4348 4.57959C13.1961 4.5102 12.9347 4.46395 12.6505 4.44082C12.3664 4.41769 12.1049 4.40612 11.8663 4.40612H6.34231V12.1082Z" fill="white"/>
<path d="M30.4632 25.5C28.6105 25.5 26.9852 25.0779 25.5871 24.2337C24.1891 23.3895 23.098 22.2272 22.3137 20.7469C21.5408 19.2551 21.1543 17.5435 21.1543 15.6122C21.1543 13.6578 21.5522 11.9405 22.3478 10.4602C23.1434 8.96837 24.2402 7.80612 25.6383 6.97347C27.0363 6.14082 28.6446 5.72449 30.4632 5.72449C32.3159 5.72449 33.9413 6.1466 35.3393 6.99082C36.7487 7.83503 37.8455 9.00306 38.6298 10.4949C39.414 11.9752 39.8062 13.681 39.8062 15.6122C39.8062 17.5551 39.4084 19.2724 38.6127 20.7643C37.8285 22.2446 36.7316 23.4068 35.3222 24.251C33.9242 25.0837 32.3045 25.5 30.4632 25.5ZM30.4632 21.0939C31.9522 21.0939 33.0604 20.585 33.7878 19.5673C34.5266 18.5381 34.896 17.2197 34.896 15.6122C34.896 13.9469 34.5209 12.617 33.7708 11.6224C33.032 10.6279 31.9294 10.1306 30.4632 10.1306C29.4516 10.1306 28.6219 10.3619 27.974 10.8245C27.3262 11.2871 26.8431 11.9289 26.5248 12.75C26.218 13.5711 26.0645 14.5252 26.0645 15.6122C26.0645 17.2891 26.4339 18.6248 27.1727 19.6194C27.9229 20.6024 29.0197 21.0939 30.4632 21.0939Z" fill="white"/>
<path d="M41.8164 24.9796V6.2449H45.5672L51.9777 18.3878L58.3882 6.2449H62.139V24.9796H57.7063V15.6469L52.7961 24.9796H51.1594L46.2492 15.6469V24.9796H41.8164Z" fill="white"/>
<path d="M70.3347 25.5C69.0162 25.5 67.8966 25.2456 66.976 24.7367C66.0667 24.2163 65.3733 23.5282 64.896 22.6724C64.4299 21.8051 64.1969 20.851 64.1969 19.8102C64.1969 18.9429 64.3277 18.1507 64.5891 17.4337C64.8505 16.7167 65.271 16.0864 65.8507 15.5429C66.4418 14.9878 67.2317 14.5252 68.2206 14.1551C68.9025 13.9007 69.7152 13.6752 70.6586 13.4786C71.602 13.282 72.6704 13.0969 73.8638 12.9235C75.0573 12.7384 76.3701 12.5361 77.8022 12.3163L76.1314 13.2531C76.1314 12.1429 75.87 11.3276 75.3471 10.8071C74.8243 10.2867 73.9491 10.0265 72.7215 10.0265C72.0396 10.0265 71.3292 10.1942 70.5904 10.5296C69.8516 10.865 69.3344 11.4605 69.0389 12.3163L64.8448 10.9633C65.3108 9.41361 66.186 8.15306 67.4704 7.18163C68.7548 6.2102 70.5052 5.72449 72.7215 5.72449C74.3469 5.72449 75.7904 5.97891 77.052 6.48775C78.3137 6.9966 79.2684 7.87551 79.9163 9.12449C80.28 9.81837 80.496 10.5122 80.5642 11.2061C80.6324 11.9 80.6665 12.6748 80.6665 13.5306V24.9796H76.6088V21.1286L77.1884 21.9265C76.2905 23.1871 75.3187 24.1007 74.273 24.6673C73.2387 25.2224 71.9259 25.5 70.3347 25.5ZM71.3235 21.7878C72.176 21.7878 72.892 21.6374 73.4717 21.3367C74.0628 21.0245 74.5288 20.6718 74.8697 20.2786C75.2221 19.8854 75.4608 19.5558 75.5858 19.2898C75.8245 18.781 75.9609 18.1912 75.995 17.5204C76.0405 16.8381 76.0632 16.2714 76.0632 15.8204L77.4271 16.1673C76.0518 16.3986 74.9379 16.5952 74.0855 16.7571C73.233 16.9075 72.5454 17.0463 72.0225 17.1735C71.4997 17.3007 71.0394 17.4395 70.6415 17.5898C70.1869 17.7748 69.8175 17.9772 69.5333 18.1969C69.2606 18.4051 69.056 18.6364 68.9196 18.8908C68.7945 19.1452 68.732 19.4286 68.732 19.7408C68.732 20.1687 68.8343 20.5388 69.0389 20.851C69.2549 21.1517 69.5561 21.383 69.9425 21.5449C70.329 21.7068 70.7893 21.7878 71.3235 21.7878Z" fill="white"/>
<path d="M83.3605 24.9796V6.2449H87.9979V13.3918H95.5678V6.2449H100.205V24.9796H95.5678V17.798H87.9979V24.9796H83.3605Z" fill="white"/>
<path d="M0 59.6735L7.50165 34.6939H14.4236L21.9253 59.6735H17.1515L10.4682 37.6429H11.3548L4.77378 59.6735H0ZM4.50099 54.4694V50.0633H17.4584V54.4694H4.50099Z" fill="white"/>
<path d="M23.2421 59.6735V40.9388H27.8795V48.0857H35.4493V40.9388H40.0867V59.6735H35.4493V52.4918H27.8795V59.6735H23.2421Z" fill="white"/>
<path d="M41.7852 63.8367V56.0306C42.7627 56.0306 43.456 55.6837 43.8652 54.9898C44.2858 54.2959 44.6154 53.0585 44.8541 51.2775C44.9905 50.2483 45.1041 49.167 45.1951 48.0337C45.2974 46.9003 45.3826 45.7381 45.4508 44.5469C45.519 43.3558 45.5815 42.1531 45.6383 40.9388H59.8574V56.0306H61.7328V63.8367H57.3682V59.6735H46.1498V63.8367H41.7852ZM47.7183 56.0306H55.22V44.5816H49.662C49.6279 45.2177 49.5881 45.8537 49.5426 46.4898C49.5085 47.1259 49.4631 47.7561 49.4062 48.3806C49.3608 49.0051 49.3153 49.6122 49.2698 50.202C49.2244 50.7803 49.1732 51.3354 49.1164 51.8673C49.0141 52.885 48.872 53.7119 48.6902 54.348C48.5083 54.984 48.1844 55.5449 47.7183 56.0306Z" fill="white"/>
<path d="M72.4578 60.1939C70.6279 60.1939 69.0991 59.7602 67.8716 58.8929C66.644 58.0255 65.7177 56.8459 65.0926 55.3541C64.4788 53.8622 64.1719 52.1796 64.1719 50.3061C64.1719 48.4327 64.4788 46.75 65.0926 45.2582C65.7063 43.7663 66.6099 42.5867 67.8034 41.7194C68.9968 40.852 70.4687 40.4184 72.2191 40.4184C73.9809 40.4184 75.5153 40.8463 76.8224 41.702C78.1295 42.5578 79.1411 43.7316 79.8572 45.2235C80.5846 46.7037 80.9483 48.398 80.9483 50.3061C80.9483 52.1796 80.5903 53.8622 79.8742 55.3541C79.1695 56.8459 78.1807 58.0255 76.9077 58.8929C75.6346 59.7602 74.1514 60.1939 72.4578 60.1939ZM63.3876 68V40.9388H67.4794V53.7755H68.0591V68H63.3876ZM71.7076 55.9959C72.7079 55.9959 73.5262 55.7415 74.1627 55.2327C74.7992 54.7238 75.2709 54.0415 75.5778 53.1857C75.8847 52.3184 76.0381 51.3585 76.0381 50.3061C76.0381 49.2653 75.879 48.317 75.5608 47.4612C75.2425 46.5939 74.7481 45.9058 74.0775 45.3969C73.4183 44.8765 72.5715 44.6163 71.5372 44.6163C70.571 44.6163 69.7868 44.8534 69.1844 45.3275C68.5933 45.8017 68.1614 46.4667 67.8886 47.3224C67.6158 48.1782 67.4794 49.1728 67.4794 50.3061C67.4794 51.4395 67.6158 52.434 67.8886 53.2898C68.1614 54.1456 68.6047 54.8105 69.2185 55.2847C69.8436 55.7588 70.6733 55.9959 71.7076 55.9959Z" fill="white"/>
<path d="M91.5537 60.1939C89.667 60.1939 88.0018 59.7833 86.5583 58.9622C85.1262 58.1296 84.0009 56.9905 83.1826 55.5449C82.3756 54.0878 81.9721 52.4224 81.9721 50.549C81.9721 48.502 82.3699 46.7211 83.1655 45.2061C83.9611 43.6912 85.058 42.5173 86.456 41.6847C87.8541 40.8405 89.4624 40.4184 91.2809 40.4184C93.2132 40.4184 94.8556 40.8809 96.2082 41.8061C97.5607 42.7313 98.561 44.0323 99.2088 45.7092C99.8567 47.3861 100.084 49.3578 99.8908 51.6245H95.3046V49.8898C95.3046 47.9816 95.0034 46.6112 94.401 45.7786C93.8099 44.9344 92.8381 44.5122 91.4855 44.5122C89.9056 44.5122 88.7406 45.0037 87.9904 45.9867C87.2516 46.9582 86.8822 48.398 86.8822 50.3061C86.8822 52.0524 87.2516 53.4054 87.9904 54.3653C88.7406 55.3136 89.8374 55.7878 91.2809 55.7878C92.1902 55.7878 92.9688 55.5854 93.6167 55.1806C94.2646 54.7758 94.759 54.1918 95.1 53.4286L99.7374 54.7816C99.044 56.4932 97.9472 57.8231 96.4469 58.7714C94.9579 59.7197 93.3269 60.1939 91.5537 60.1939ZM85.4501 51.6245V48.1204H97.6573V51.6245H85.4501Z" fill="white"/>
<path d="M110.594 60.1939C108.707 60.1939 107.042 59.7833 105.599 58.9622C104.167 58.1296 103.041 56.9905 102.223 55.5449C101.416 54.0878 101.013 52.4224 101.013 50.549C101.013 48.502 101.41 46.7211 102.206 45.2061C103.002 43.6912 104.098 42.5173 105.497 41.6847C106.895 40.8405 108.503 40.4184 110.321 40.4184C112.254 40.4184 113.896 40.8809 115.249 41.8061C116.601 42.7313 117.601 44.0323 118.249 45.7092C118.897 47.3861 119.125 49.3578 118.931 51.6245H114.345V49.8898C114.345 47.9816 114.044 46.6112 113.441 45.7786C112.85 44.9344 111.879 44.5122 110.526 44.5122C108.946 44.5122 107.781 45.0037 107.031 45.9867C106.292 46.9582 105.923 48.398 105.923 50.3061C105.923 52.0524 106.292 53.4054 107.031 54.3653C107.781 55.3136 108.878 55.7878 110.321 55.7878C111.231 55.7878 112.009 55.5854 112.657 55.1806C113.305 54.7758 113.799 54.1918 114.14 53.4286L118.778 54.7816C118.085 56.4932 116.988 57.8231 115.487 58.7714C113.998 59.7197 112.367 60.1939 110.594 60.1939ZM104.491 51.6245V48.1204H116.698V51.6245H104.491Z" fill="white"/>
<path d="M121.042 59.6735V40.9388H129.669C130.351 40.9388 130.948 40.9793 131.459 41.0602C131.97 41.1296 132.397 41.2163 132.738 41.3204C133.579 41.5748 134.346 42.0721 135.039 42.8122C135.733 43.5524 136.079 44.6279 136.079 46.0388C136.079 46.8714 135.949 47.548 135.687 48.0684C135.426 48.5772 135.079 48.9993 134.647 49.3347C134.443 49.485 134.238 49.6122 134.033 49.7163C133.829 49.8204 133.624 49.9014 133.42 49.9592C133.897 50.0286 134.329 50.1558 134.715 50.3408C135.329 50.6184 135.863 51.0578 136.318 51.6592C136.773 52.249 137 53.1279 137 54.2959C137 55.5449 136.699 56.6088 136.096 57.4878C135.505 58.3667 134.613 58.9796 133.42 59.3265C133.01 59.4422 132.527 59.5289 131.97 59.5867C131.425 59.6446 130.851 59.6735 130.249 59.6735H121.042ZM125.748 56.1H129.908C130.146 56.1 130.391 56.0769 130.641 56.0306C130.902 55.9728 131.135 55.9034 131.34 55.8224C131.669 55.6837 131.902 55.4466 132.039 55.1112C132.186 54.7758 132.26 54.4347 132.26 54.0878C132.26 53.602 132.152 53.2204 131.936 52.9429C131.732 52.6653 131.499 52.4687 131.237 52.3531C131.021 52.249 130.783 52.1912 130.521 52.1796C130.271 52.1565 130.067 52.1449 129.908 52.1449H125.748V56.1ZM125.748 48.502H128.578C128.941 48.502 129.282 48.4847 129.601 48.45C129.93 48.4037 130.203 48.3286 130.419 48.2245C130.715 48.0857 130.936 47.866 131.084 47.5653C131.232 47.2531 131.306 46.9061 131.306 46.5245C131.306 46.1197 131.22 45.7554 131.05 45.4316C130.891 45.0963 130.624 44.8707 130.249 44.7551C129.998 44.6626 129.68 44.6105 129.294 44.599C128.919 44.5874 128.68 44.5816 128.578 44.5816H125.748V48.502Z" fill="white"/>
</svg>
