<svg width="63" height="64" viewBox="0 0 63 64" fill="none" xmlns="http://www.w3.org/2000/svg">
<path d="M16.9999 62.0318H7.99996C6.40867 62.0318 4.88256 61.3997 3.75735 60.2745C2.63214 59.1493 2 57.6232 2 56.0319V35.032C2 33.4407 2.63214 31.9146 3.75735 30.7894C4.88256 29.6642 6.40867 29.0321 7.99996 29.0321H16.9999M37.9998 23.0321V11.0322C37.9998 8.64524 37.0516 6.35607 35.3638 4.66825C33.6759 2.98043 31.3868 2.03223 28.9998 2.03223L16.9999 29.0321V62.0318H50.8397C52.2867 62.0482 53.6908 61.5411 54.7934 60.6039C55.896 59.6667 56.6227 58.3626 56.8397 56.9319L60.9796 29.932C61.1101 29.0721 61.0521 28.1941 60.8096 27.3588C60.5671 26.5235 60.1459 25.751 59.5752 25.0946C59.0045 24.4383 58.2979 23.9139 57.5044 23.5577C56.7108 23.2016 55.8494 23.0222 54.9797 23.0321H37.9998Z" stroke="#8FCA62" stroke-width="3" stroke-linecap="round" stroke-linejoin="round"/>
</svg>
