<svg width="60" height="55" viewBox="0 0 60 55" fill="none" xmlns="http://www.w3.org/2000/svg">
<path d="M7.6 1.79395H52.4C53.8852 1.79395 55.3096 2.39097 56.3598 3.45367C57.41 4.51638 58 5.95772 58 7.46061V24.4606C58 31.9751 55.05 39.1818 49.799 44.4953C44.548 49.8088 37.4261 52.7939 30 52.7939C26.323 52.7939 22.682 52.0611 19.2849 50.6372C15.8877 49.2133 12.8011 47.1263 10.201 44.4953C4.94999 39.1818 2 31.9751 2 24.4606V7.46061C2 5.95772 2.59 4.51638 3.6402 3.45367C4.69041 2.39097 6.11479 1.79395 7.6 1.79395V1.79395Z" stroke="#8FCA62" stroke-width="3" stroke-linecap="round" stroke-linejoin="round"/>
<path d="M43.0833 18L32 29.0833L26.1666 23.25L17.4166 32" stroke="#8FCA62" stroke-width="3" stroke-linecap="round" stroke-linejoin="round"/>
<path d="M36.0833 18H43.0833V25" stroke="#8FCA62" stroke-width="3" stroke-linecap="round" stroke-linejoin="round"/>
</svg>
